<svg width="59" height="19" viewBox="0 0 59 19" fill="none" xmlns="http://www.w3.org/2000/svg">
<path d="M0 0.598996C0.792033 0.191216 1.69777 0.355897 2.54862 0.340213C4.49734 0.391185 6.44997 0.293161 8.39869 0.379422C9.27698 0.375502 10.0298 1.1048 10.1514 1.95565C10.763 4.91989 11.3237 7.89589 11.9236 10.868C10.9316 7.38617 8.31242 4.54348 5.23448 2.73592C3.60728 1.7596 1.79188 1.19106 0 0.598996Z" fill="#F4A929"></path>
<path d="M16.9541 0.348083C18.644 0.367688 20.3301 0.359846 22.0161 0.348083C19.4518 6.47654 17.06 12.6756 14.4408 18.7805C12.794 18.7295 11.1472 18.753 9.50037 18.753C8.04178 13.4245 6.68121 8.06844 5.23438 2.73594C8.31232 4.54351 10.9315 7.3862 11.9235 10.868C12.0725 11.5424 12.1784 12.2325 12.3078 12.9147C13.8448 8.72324 15.4014 4.53566 16.9541 0.348083Z" fill="#1B4DA2"></path>
<path d="M23.9099 0.34021C25.4979 0.351973 27.0859 0.351973 28.6739 0.34021C27.6976 6.48042 26.6703 12.6128 25.7175 18.7569C24.1374 18.7609 22.5572 18.7609 20.9731 18.7569C21.8828 12.6089 22.9532 6.48435 23.9099 0.34021Z" fill="#1B4DA2"></path>
<path d="M33.1928 1.49689C36.0394 -0.37341 39.7604 -0.318517 42.9089 0.716615C42.7638 2.07719 42.5364 3.426 42.3012 4.77088C40.6269 3.96709 38.6743 3.61028 36.855 4.07687C35.9963 4.28076 35.1493 5.34726 35.863 6.14714C37.3294 7.64886 39.6388 7.98999 41.019 9.62502C42.6188 11.1895 42.5599 13.8244 41.4699 15.6555C40.3172 17.5885 38.0979 18.6001 35.9375 18.8902C33.4947 19.1451 30.95 18.9922 28.6602 18.0472C28.9033 16.6749 29.1071 15.2947 29.3542 13.9224C31.3342 14.9458 33.6319 15.4594 35.8394 14.9693C36.5883 14.7183 37.3608 14.1028 37.2941 13.2245C37.0471 12.1776 35.9531 11.7306 35.1023 11.2561C33.4516 10.4445 31.6754 9.44858 30.9343 7.66455C30.0129 5.41 31.2323 2.7712 33.1928 1.49689Z" fill="#1B4DA2"></path>
<path d="M48.8082 2.22617C49.1258 1.37925 49.7531 0.457821 50.7451 0.406848C52.2037 0.304903 53.6701 0.391165 55.1287 0.363718C56.4344 6.49609 57.697 12.6324 58.983 18.7648C57.5166 18.7687 56.0502 18.7687 54.5837 18.7726C54.3759 17.8512 54.1799 16.9258 53.9917 15.9966C51.9567 15.9966 49.9256 16.0005 47.8946 15.9887C47.5691 16.918 47.2319 17.8473 46.883 18.7687C45.2205 18.7687 43.558 18.7687 41.8955 18.7726C44.1932 13.2558 46.5144 7.74688 48.8082 2.22617Z" fill="#1B4DA2"></path>
<path d="M49.2773 12.2015C50.1635 9.92343 50.8889 7.57869 51.8809 5.34375C52.1749 7.65711 52.7513 9.92343 53.2257 12.2054C51.9083 12.2054 50.5948 12.2054 49.2773 12.2015Z" fill="white"></path>
</svg>